<?xml version="1.0" standalone="no"?>
<!DOCTYPE svg PUBLIC "-//W3C//DTD SVG 20010904//EN"
 "http://www.w3.org/TR/2001/REC-SVG-20010904/DTD/svg10.dtd">
<svg version="1.0" xmlns="http://www.w3.org/2000/svg"
 width="984.000000pt" height="984.000000pt" viewBox="0 0 984.000000 984.000000"
 preserveAspectRatio="xMidYMid meet">
<metadata>
Created by potrace 1.14, written by Peter Selinger 2001-2017
</metadata>
<g transform="translate(0.000000,984.000000) scale(0.100000,-0.100000)"
fill="#000000" stroke="none">
<path d="M7227 7504 c-1 -1 -54 -5 -117 -8 -63 -3 -131 -8 -150 -11 -19 -3
-51 -7 -70 -10 -413 -50 -882 -251 -1224 -523 -124 -99 -159 -133 -1454 -1421
-706 -702 -1286 -1276 -1289 -1276 -4 0 -10 14 -15 30 -62 203 -190 407 -363
581 -134 134 -262 226 -416 298 -87 41 -254 98 -324 111 -95 18 -252 32 -335
30 -236 -6 -421 -51 -630 -152 -152 -74 -263 -155 -395 -288 -204 -204 -326
-418 -394 -690 -124 -500 23 -1033 386 -1398 48 -48 112 -107 143 -130 30 -23
57 -45 58 -49 2 -5 8 -8 13 -8 4 0 39 -19 76 -43 82 -52 211 -111 312 -144 70
-22 87 -26 151 -39 14 -3 32 -7 40 -9 117 -33 441 -23 617 20 13 3 31 7 41 9
89 20 268 98 381 165 127 76 236 177 819 756 338 336 785 780 995 988 210 208
430 426 489 484 72 72 107 100 106 87 -2 -26 13 -248 17 -254 1 -3 6 -32 10
-65 15 -137 87 -417 135 -530 4 -11 22 -54 39 -95 199 -492 598 -949 1073
-1228 86 -50 289 -152 305 -152 4 0 19 -6 33 -13 46 -24 306 -109 375 -122
278 -54 396 -67 605 -67 101 1 245 9 290 17 8 1 40 6 70 10 30 4 64 9 75 11
11 3 36 7 55 10 122 19 337 86 500 154 475 199 880 538 1166 976 176 269 326
642 370 922 3 19 8 44 10 56 5 27 13 83 24 176 11 98 5 508 -9 585 -6 33 -14
78 -16 100 -3 22 -8 47 -10 55 -2 8 -7 31 -10 50 -3 19 -17 77 -31 128 -181
672 -632 1250 -1239 1589 -80 44 -220 113 -230 113 -3 0 -28 11 -57 24 -75 34
-302 106 -381 122 -10 2 -26 5 -35 8 -9 3 -33 7 -52 10 -19 3 -46 8 -60 11
-14 3 -45 8 -70 11 -25 3 -56 7 -70 9 -52 7 -328 23 -333 19z m198 -788 c203
-16 438 -83 640 -183 85 -42 263 -153 295 -184 8 -8 35 -30 60 -51 211 -172
404 -438 518 -715 41 -100 93 -300 107 -413 3 -25 8 -64 11 -88 14 -107 3
-372 -21 -480 -3 -15 -7 -36 -9 -47 -51 -255 -173 -519 -345 -745 -104 -138
-316 -328 -471 -423 -243 -149 -515 -239 -795 -264 -332 -29 -659 33 -960 184
-432 215 -753 585 -906 1043 -109 327 -122 628 -44 995 12 56 83 260 115 330
171 369 472 678 838 859 136 68 303 127 427 152 11 2 31 6 45 9 58 11 89 15
165 21 44 4 81 7 82 8 4 3 174 -2 248 -8z m-5815 -2201 c19 -4 45 -9 58 -11
45 -9 153 -57 210 -94 297 -194 403 -569 252 -895 -76 -166 -228 -302 -405
-362 -85 -30 -127 -36 -235 -36 -498 0 -835 507 -646 972 91 223 311 396 545
427 25 3 47 7 49 8 4 5 137 -3 172 -9z"/>
</g>
</svg>
