<?xml version="1.0" encoding="UTF-8" standalone="no"?>
<svg
   width="62.786758"
   height="33.516235"
   viewBox="0 0 62.786758 33.516235"
   fill="none"
   version="1.1"
   id="svg8"
   xmlns="http://www.w3.org/2000/svg"
   xmlns:svg="http://www.w3.org/2000/svg">
  <defs
     id="defs12" />
  <path
     d="m 2.72308,17.11054 c -0.88426,0.9137 -1.57974,1.9925 -2.046739,3.1749 -0.466998,1.1823 -0.6963556,2.445 -0.6749723,3.7159 0.0213833,1.2709 0.2930893,2.5252 0.7995973,3.6912 0.506504,1.166 1.237894,2.2208 2.152394,3.1043 1.84665,1.7838 4.32675,2.7615 6.89473,2.718 2.56801,-0.0434 5.01351,-1.1045 6.79861,-2.9499 0.1244,-0.1406 0.2446,-0.2849 0.3606,-0.4325 l 0.0303,0.0312 12.4093,-12.8251 c 0.1727,4.2764 1.9832,8.3283 5.0571,11.3177 1.5787,1.5257 3.4416,2.7266 5.4825,3.5343 2.0408,0.8077 4.2197,1.2063 6.412,1.1729 2.1924,-0.0333 4.3553,-0.4978 6.3653,-1.367 2.0101,-0.8692 3.8278,-2.1261 5.3494,-3.6989 3.0725,-3.1762 4.7526,-7.446 4.6707,-11.87 -0.0819,-4.424 -1.9191,-8.6398995 -5.1075,-11.7202995 -3.188,-3.08004 -7.4658,-4.77257003 -11.8926,-4.70531003 -4.4267,0.06727 -8.6399,1.88881003 -11.7128,5.06401003 -0.3321,0.3623 -0.6479,0.7391 -0.9466,1.1294 L 18.8876,20.90924 c -0.4788,-1.5255 -1.3283,-2.9087 -2.4726,-4.026 -1.8461,-1.7843 -4.326,-2.7627 -6.89399,-2.7199 -2.568,0.0428 -5.01382,1.1033 -6.79944,2.9482 z m 3.61571,3.4939 c 0.42501,-0.439 0.93239,-0.7901 1.49316,-1.0332 0.56078,-0.243 1.16396,-0.3733 1.77512,-0.3834 0.61113,-0.0101 1.21833,0.1002 1.78683,0.3246 0.5685,0.2244 1.0872,0.5586 1.5265,0.9833 0.7877,0.7651 1.2793,1.7839 1.3878,2.8762 0.1084,1.0923 -0.1731,2.1878 -0.795,3.0927 l -0.1457,0.1507 0.0151,0.0156 c -0.1083,0.1541 -0.2259,0.3015 -0.352,0.4414 -0.4248,0.4392 -0.932,0.7906 -1.4926,1.0339 -0.5607,0.2434 -1.1638,0.374 -1.77492,0.3845 -0.61115,0.0104 -1.21837,-0.0996 -1.78699,-0.3237 -0.56863,-0.2241 -1.08753,-0.5579 -1.52706,-0.9824 -0.43971,-0.4246 -0.79138,-0.9317 -1.03493,-1.4922 -0.24355,-0.5605 -0.37418,-1.1634 -0.38446,-1.7744 -0.01027,-0.611 0.10002,-1.218 0.32458,-1.7864 0.22457,-0.5684 0.55899,-1.0869 0.98417,-1.5261 z M 37.7338,8.7748405 l 0.1719,-0.1778 c 2.1502,-2.1752 5.0639,-3.4232 8.109,-3.4734 3.0452,-0.0501 5.9764,1.1017 8.1579,3.2057 1.0877,1.0506 1.9557,2.3070995 2.5546,3.6975995 0.5989,1.3904 0.9168,2.8877 0.9356,4.4064 0.0189,1.5186 -0.2618,3.0288 -0.8258,4.4444 -0.5641,1.4155 -1.4005,2.7087 -2.4616,3.8057 -1.0613,1.097 -2.3265,1.9762 -3.7234,2.5875 -1.3968,0.6112 -2.8979,0.9425 -4.4175,0.9749 -1.5197,0.0324 -3.028,-0.2347 -4.439,-0.7861 -1.411,-0.5514 -2.697,-1.3763 -3.7844,-2.4275 -2.1778,-2.1084 -3.4284,-4.9978 -3.4803,-8.0413 -0.0519,-3.0436 1.099,-5.9955 3.203,-8.2160995 z"
     fill="#4154fa"
     id="path2" />
</svg>
